<?xml version="1.0" encoding="UTF-8" standalone="no"?>
<!DOCTYPE svg PUBLIC "-//W3C//DTD SVG 1.1//EN" "http://www.w3.org/Graphics/SVG/1.1/DTD/svg11.dtd">
<svg width="100%" height="100%" viewBox="0 0 1800 600" version="1.1" xmlns="http://www.w3.org/2000/svg" xmlns:xlink="http://www.w3.org/1999/xlink" xml:space="preserve" xmlns:serif="http://www.serif.com/" style="fill-rule:evenodd;clip-rule:evenodd;stroke-linecap:round;stroke-linejoin:round;stroke-miterlimit:1.5;">
    <g transform="matrix(0.747529,0,0,0.647301,-10.006,-108.309)">
        <rect x="111.289" y="451.568" width="69.129" height="112.613" style="fill:rgb(255,201,201);stroke:black;stroke-width:2.98px;"/>
    </g>
    <g transform="matrix(1.38799,0,0,1.5707,2.50886,-1070.63)">
        <path d="M69.536,853.211L69.536,949.281" style="fill:none;stroke:black;stroke-width:1.41px;"/>
    </g>
    <g transform="matrix(0.747529,0,0,0.647301,41.6699,-108.309)">
        <rect x="111.289" y="451.568" width="69.129" height="112.613" style="fill:rgb(201,255,214);stroke:black;stroke-width:2.98px;"/>
    </g>
    <g transform="matrix(0.747529,0,0,0.647301,93.3457,-108.309)">
        <rect x="111.289" y="451.568" width="69.129" height="112.613" style="fill:rgb(201,255,214);stroke:black;stroke-width:2.98px;"/>
    </g>
    <g transform="matrix(0.747529,0,0,0.647301,145.022,-108.309)">
        <rect x="111.289" y="451.568" width="69.129" height="112.613" style="fill:rgb(201,255,214);stroke:black;stroke-width:2.98px;"/>
    </g>
    <g transform="matrix(0.747529,0,0,0.647301,196.698,-108.309)">
        <rect x="111.289" y="451.568" width="69.129" height="112.613" style="fill:rgb(201,255,214);stroke:black;stroke-width:2.98px;"/>
    </g>
    <g transform="matrix(0.747529,0,0,0.647301,248.373,-108.309)">
        <rect x="111.289" y="451.568" width="69.129" height="112.613" style="fill:rgb(201,255,214);stroke:black;stroke-width:2.98px;"/>
    </g>
    <g transform="matrix(0.747529,0,0,0.647301,300.049,-108.309)">
        <rect x="111.289" y="451.568" width="69.129" height="112.613" style="fill:rgb(201,255,214);stroke:black;stroke-width:2.98px;"/>
    </g>
    <g transform="matrix(0.747529,0,0,0.647301,351.725,-108.309)">
        <rect x="111.289" y="451.568" width="69.129" height="112.613" style="fill:rgb(201,255,214);stroke:black;stroke-width:2.98px;"/>
    </g>
    <g transform="matrix(0.747529,0,0,0.647301,403.401,-108.309)">
        <rect x="111.289" y="451.568" width="69.129" height="112.613" style="fill:rgb(201,255,214);stroke:black;stroke-width:2.98px;"/>
    </g>
    <g transform="matrix(0.747529,0,0,0.647301,455.077,-108.309)">
        <rect x="111.289" y="451.568" width="69.129" height="112.613" style="fill:rgb(201,243,255);stroke:black;stroke-width:2.98px;"/>
    </g>
    <g transform="matrix(0.747529,0,0,0.647301,506.753,-108.309)">
        <rect x="111.289" y="451.568" width="69.129" height="112.613" style="fill:rgb(201,243,255);stroke:black;stroke-width:2.98px;"/>
    </g>
    <g transform="matrix(0.747529,0,0,0.647301,558.429,-108.309)">
        <rect x="111.289" y="451.568" width="69.129" height="112.613" style="fill:rgb(201,243,255);stroke:black;stroke-width:2.98px;"/>
    </g>
    <g transform="matrix(0.747529,0,0,0.647301,610.105,-108.309)">
        <rect x="111.289" y="451.568" width="69.129" height="112.613" style="fill:rgb(201,243,255);stroke:black;stroke-width:2.98px;"/>
    </g>
    <g transform="matrix(0.747529,0,0,0.647301,661.78,-108.309)">
        <rect x="111.289" y="451.568" width="69.129" height="112.613" style="fill:rgb(201,243,255);stroke:black;stroke-width:2.98px;"/>
    </g>
    <g transform="matrix(0.747529,0,0,0.647301,713.456,-108.309)">
        <rect x="111.289" y="451.568" width="69.129" height="112.613" style="fill:rgb(201,243,255);stroke:black;stroke-width:2.98px;"/>
    </g>
    <g transform="matrix(0.747529,0,0,0.647301,765.132,-108.309)">
        <rect x="111.289" y="451.568" width="69.129" height="112.613" style="fill:rgb(201,243,255);stroke:black;stroke-width:2.98px;"/>
    </g>
    <g transform="matrix(0.747529,0,0,0.647301,1281.89,-108.309)">
        <rect x="111.289" y="451.568" width="69.129" height="112.613" style="fill:rgb(201,243,255);stroke:black;stroke-width:2.98px;"/>
    </g>
    <g transform="matrix(0.747529,0,0,0.647301,1333.57,-108.309)">
        <rect x="111.289" y="451.568" width="69.129" height="112.613" style="fill:rgb(201,243,255);stroke:black;stroke-width:2.98px;"/>
    </g>
    <g transform="matrix(0.747529,0,0,0.647301,1385.24,-108.309)">
        <rect x="111.289" y="451.568" width="69.129" height="112.613" style="fill:rgb(201,243,255);stroke:black;stroke-width:2.98px;"/>
    </g>
    <g transform="matrix(0.747529,0,0,0.647301,1436.92,-108.309)">
        <rect x="111.289" y="451.568" width="69.129" height="112.613" style="fill:rgb(201,243,255);stroke:black;stroke-width:2.98px;"/>
    </g>
    <g transform="matrix(0.747529,0,0,0.647301,1488.59,-108.309)">
        <rect x="111.289" y="451.568" width="69.129" height="112.613" style="fill:rgb(201,243,255);stroke:black;stroke-width:2.98px;"/>
    </g>
    <g transform="matrix(0.747529,0,0,0.647301,1540.27,-108.309)">
        <rect x="111.289" y="451.568" width="69.129" height="112.613" style="fill:rgb(201,243,255);stroke:black;stroke-width:2.98px;"/>
    </g>
    <g transform="matrix(0.747529,0,0,0.647301,1591.95,-108.309)">
        <rect x="111.289" y="451.568" width="69.129" height="112.613" style="fill:rgb(201,243,255);stroke:black;stroke-width:2.98px;"/>
    </g>
    <g transform="matrix(0.747529,0,0,0.647301,816.808,-108.309)">
        <rect x="111.289" y="451.568" width="69.129" height="112.613" style="fill:rgb(201,243,255);stroke:black;stroke-width:2.98px;"/>
    </g>
    <g transform="matrix(0.747529,0,0,0.647301,868.484,-108.309)">
        <rect x="111.289" y="451.568" width="69.129" height="112.613" style="fill:rgb(201,243,255);stroke:black;stroke-width:2.98px;"/>
    </g>
    <g transform="matrix(0.747529,0,0,0.647301,920.16,-108.309)">
        <rect x="111.289" y="451.568" width="69.129" height="112.613" style="fill:rgb(201,243,255);stroke:black;stroke-width:2.98px;"/>
    </g>
    <g transform="matrix(0.747529,0,0,0.647301,971.836,-108.309)">
        <rect x="111.289" y="451.568" width="69.129" height="112.613" style="fill:rgb(201,243,255);stroke:black;stroke-width:2.98px;"/>
    </g>
    <g transform="matrix(0.747529,0,0,0.647301,1023.51,-108.309)">
        <rect x="111.289" y="451.568" width="69.129" height="112.613" style="fill:rgb(201,243,255);stroke:black;stroke-width:2.98px;"/>
    </g>
    <g transform="matrix(0.747529,0,0,0.647301,1075.19,-108.309)">
        <rect x="111.289" y="451.568" width="69.129" height="112.613" style="fill:rgb(201,243,255);stroke:black;stroke-width:2.98px;"/>
    </g>
    <g transform="matrix(0.747529,0,0,0.647301,1126.86,-108.309)">
        <rect x="111.289" y="451.568" width="69.129" height="112.613" style="fill:rgb(201,243,255);stroke:black;stroke-width:2.98px;"/>
    </g>
    <g transform="matrix(0.747529,0,0,0.647301,1178.54,-108.309)">
        <rect x="111.289" y="451.568" width="69.129" height="112.613" style="fill:rgb(201,243,255);stroke:black;stroke-width:2.98px;"/>
    </g>
    <g transform="matrix(0.747529,0,0,0.647301,1230.22,-108.309)">
        <rect x="111.289" y="451.568" width="69.129" height="112.613" style="fill:rgb(201,243,255);stroke:black;stroke-width:2.98px;"/>
    </g>
    <g transform="matrix(0.706314,0,0,0.706314,56.0302,-155.471)">
        <text x="2315.17px" y="458.793px" style="font-family:'ArialMT', 'Arial', sans-serif;font-size:50px;">0</text>
    </g>
    <g transform="matrix(0.706314,0,0,0.706314,-1080.84,-168.378)">
        <text x="2301.27px" y="458.793px" style="font-family:'ArialMT', 'Arial', sans-serif;font-size:50px;">22</text>
    </g>
    <g transform="matrix(0.706314,0,0,0.706314,-1132.23,-168.378)">
        <text x="2301.27px" y="458.793px" style="font-family:'ArialMT', 'Arial', sans-serif;font-size:50px;">23</text>
    </g>
    <g transform="matrix(0.706314,0,0,0.706314,-1494.09,-168.378)">
        <text x="2301.27px" y="458.793px" style="font-family:'ArialMT', 'Arial', sans-serif;font-size:50px;">30</text>
    </g>
    <g transform="matrix(0.706314,0,0,0.706314,-1545.93,-168.378)">
        <text x="2301.27px" y="458.793px" style="font-family:'ArialMT', 'Arial', sans-serif;font-size:50px;">31</text>
    </g>
    <g transform="matrix(1.79726,0,0,0.706314,-353.558,-295.833)">
        <path d="M496.214,800.413C496.214,827.618 515.258,840.698 553.658,840.698C592.058,840.698 826.868,822.332 826.868,873.299" style="fill:none;stroke:black;stroke-width:1.53px;"/>
        <g transform="matrix(-1,0,0,1,1653.74,0)">
            <path d="M496.214,800.413C496.214,827.618 515.258,840.698 553.658,840.698C592.058,840.698 826.868,822.332 826.868,873.299" style="fill:none;stroke:black;stroke-width:1.53px;"/>
        </g>
    </g>
    <g transform="matrix(0.625135,0,0,0.706314,-185.339,-295.833)">
        <path d="M496.214,800.413C496.214,827.618 515.258,840.698 553.658,840.698C592.058,840.698 826.868,822.332 826.868,873.299" style="fill:none;stroke:black;stroke-width:3.12px;"/>
        <g transform="matrix(-1,0,0,1,1653.74,0)">
            <path d="M496.214,800.413C496.214,827.618 515.258,840.698 553.658,840.698C592.058,840.698 826.868,822.332 826.868,873.299" style="fill:none;stroke:black;stroke-width:3.12px;"/>
        </g>
    </g>
    <g transform="matrix(0.706314,0,0,0.706314,-47.8888,-174.999)">
        <text x="1470px" y="762.73px" style="font-family:'ArialMT', 'Arial', sans-serif;font-size:50px;">23</text>
        <text x="1525.61px" y="762.73px" style="font-family:'SimHei', monospace;font-size:50px;">位，尾数部分</text>
        <text x="1825.61px" y="762.73px" style="font-family:'ArialMT', 'Arial', sans-serif;font-size:50px;">(f)</text>
    </g>
    <g transform="matrix(0.706314,0,0,0.706314,-848.865,-174.999)">
        <text x="1470px" y="762.73px" style="font-family:'ArialMT', 'Arial', sans-serif;font-size:50px;">8</text>
        <text x="1497.81px" y="762.73px" style="font-family:'SimHei', monospace;font-size:50px;">位，指数部分</text>
        <text x="1797.81px" y="762.73px" style="font-family:'ArialMT', 'Arial', sans-serif;font-size:50px;">(e)</text>
    </g>
    <g transform="matrix(0.706314,0,0,0.706314,33.8765,-178.231)">
        <text x="53.897px" y="906.832px" style="font-family:'SimHei', monospace;font-size:50px;">符号位</text>
        <text x="203.897px" y="906.832px" style="font-family:'ArialMT', 'Arial', sans-serif;font-size:50px;">(s)</text>
    </g>
</svg>
